<svg width="200" height="200" viewBox="0 0 200 200" xmlns="http://www.w3.org/2000/svg">
  <defs>
    <linearGradient id="logoGradient" x1="0%" y1="0%" x2="100%" y2="100%">
      <stop offset="0%" style="stop-color:#10B981"/>
      <stop offset="100%" style="stop-color:#059669"/>
    </linearGradient>
    <linearGradient id="lightGradient" x1="0%" y1="0%" x2="100%" y2="100%">
      <stop offset="0%" style="stop-color:#34D399"/>
      <stop offset="100%" style="stop-color:#10B981"/>
    </linearGradient>
    <filter id="shadow" x="-20%" y="-20%" width="140%" height="140%">
      <feDropShadow dx="0" dy="4" stdDeviation="4" flood-opacity="0.2"/>
    </filter>
  </defs>
  <circle cx="100" cy="100" r="90" fill="url(#logoGradient)" filter="url(#shadow)"/>
  <polygon points="100,45 45,80 100,100 155,80" fill="#065F46"/>
  <ellipse cx="100" cy="100" rx="55" ry="20" fill="#047857"/>
  <circle cx="100" cy="78" r="6" fill="#34D399"/>
  <path d="M100,78 Q85,90 75,115" stroke="#FCD34D" stroke-width="3" fill="none" stroke-linecap="round"/>
  <circle cx="75" cy="115" r="5" fill="#FCD34D"/>
  <path d="M72,118 L72,135 M75,118 L75,138 M78,118 L78,133" stroke="#FCD34D" stroke-width="2" stroke-linecap="round"/>
  <g transform="translate(115, 110)">
    <path d="M0,0 L40,0 Q50,0 50,10 L50,30 Q50,40 40,40 L15,40 L5,50 L5,40 L0,40 Q-10,40 -10,30 L-10,10 Q-10,0 0,0 Z" fill="white" opacity="0.95"/>
    <circle cx="8" cy="22" r="4" fill="#10B981"/>
    <circle cx="22" cy="22" r="4" fill="#10B981"/>
    <circle cx="36" cy="22" r="4" fill="#10B981"/>
  </g>
</svg>
